<svg xmlns="http://www.w3.org/2000/svg" version="1.1" xmlns:xlink="http://www.w3.org/1999/xlink" xmlns:svgjs="http://svgjs.com/svgjs" width="1440" height="560" preserveAspectRatio="none" viewBox="0 0 1440 560">
    <g mask="url(&quot;#SvgjsMask1012&quot;)" fill="none">
        <rect width="1440" height="560" x="0" y="0" fill="rgba(39, 42, 49, 1)"></rect>
        <path d="M599 132L598 278" stroke-width="10" stroke="url(#SvgjsLinearGradient1013)" stroke-linecap="round" class="Up"></path>
        <path d="M1418 83L1417 280" stroke-width="6" stroke="url(#SvgjsLinearGradient1014)" stroke-linecap="round" class="Down"></path>
        <path d="M166 377L165 743" stroke-width="8" stroke="url(#SvgjsLinearGradient1013)" stroke-linecap="round" class="Up"></path>
        <path d="M533 269L532 425" stroke-width="8" stroke="url(#SvgjsLinearGradient1014)" stroke-linecap="round" class="Down"></path>
        <path d="M1111 62L1110 329" stroke-width="10" stroke="url(#SvgjsLinearGradient1013)" stroke-linecap="round" class="Up"></path>
        <path d="M806 276L805 126" stroke-width="8" stroke="url(#SvgjsLinearGradient1014)" stroke-linecap="round" class="Down"></path>
        <path d="M1089 211L1088 -182" stroke-width="8" stroke="url(#SvgjsLinearGradient1014)" stroke-linecap="round" class="Down"></path>
        <path d="M977 463L976 253" stroke-width="8" stroke="url(#SvgjsLinearGradient1013)" stroke-linecap="round" class="Up"></path>
        <path d="M345 221L344 507" stroke-width="10" stroke="url(#SvgjsLinearGradient1013)" stroke-linecap="round" class="Up"></path>
        <path d="M1129 438L1128 651" stroke-width="8" stroke="url(#SvgjsLinearGradient1014)" stroke-linecap="round" class="Down"></path>
        <path d="M128 166L127 429" stroke-width="10" stroke="url(#SvgjsLinearGradient1013)" stroke-linecap="round" class="Up"></path>
        <path d="M787 366L786 702" stroke-width="6" stroke="url(#SvgjsLinearGradient1014)" stroke-linecap="round" class="Down"></path>
        <path d="M576 399L575 13" stroke-width="8" stroke="url(#SvgjsLinearGradient1013)" stroke-linecap="round" class="Up"></path>
        <path d="M672 28L671 -128" stroke-width="10" stroke="url(#SvgjsLinearGradient1014)" stroke-linecap="round" class="Down"></path>
        <path d="M1009 127L1008 413" stroke-width="10" stroke="url(#SvgjsLinearGradient1013)" stroke-linecap="round" class="Up"></path>
        <path d="M490 398L489 545" stroke-width="10" stroke="url(#SvgjsLinearGradient1013)" stroke-linecap="round" class="Up"></path>
        <path d="M1145 303L1144 586" stroke-width="8" stroke="url(#SvgjsLinearGradient1013)" stroke-linecap="round" class="Up"></path>
        <path d="M1238 368L1237 630" stroke-width="6" stroke="url(#SvgjsLinearGradient1013)" stroke-linecap="round" class="Up"></path>
        <path d="M526 320L525 74" stroke-width="10" stroke="url(#SvgjsLinearGradient1014)" stroke-linecap="round" class="Down"></path>
        <path d="M1371 398L1370 67" stroke-width="10" stroke="url(#SvgjsLinearGradient1014)" stroke-linecap="round" class="Down"></path>
        <path d="M659 161L658 509" stroke-width="6" stroke="url(#SvgjsLinearGradient1013)" stroke-linecap="round" class="Up"></path>
        <path d="M742 506L741 678" stroke-width="10" stroke="url(#SvgjsLinearGradient1013)" stroke-linecap="round" class="Up"></path>
        <path d="M386 285L385 655" stroke-width="10" stroke="url(#SvgjsLinearGradient1014)" stroke-linecap="round" class="Down"></path>
        <path d="M808 545L807 373" stroke-width="6" stroke="url(#SvgjsLinearGradient1014)" stroke-linecap="round" class="Down"></path>
        <path d="M619 14L618 389" stroke-width="10" stroke="url(#SvgjsLinearGradient1014)" stroke-linecap="round" class="Down"></path>
        <path d="M421 433L420 682" stroke-width="6" stroke="url(#SvgjsLinearGradient1013)" stroke-linecap="round" class="Up"></path>
        <path d="M1230 133L1229 -14" stroke-width="6" stroke="url(#SvgjsLinearGradient1013)" stroke-linecap="round" class="Up"></path>
        <path d="M261 559L260 398" stroke-width="6" stroke="url(#SvgjsLinearGradient1013)" stroke-linecap="round" class="Up"></path>
        <path d="M1393 295L1392 26" stroke-width="6" stroke="url(#SvgjsLinearGradient1014)" stroke-linecap="round" class="Down"></path>
        <path d="M1249 372L1248 779" stroke-width="10" stroke="url(#SvgjsLinearGradient1014)" stroke-linecap="round" class="Down"></path>
        <path d="M1015 19L1014 -178" stroke-width="10" stroke="url(#SvgjsLinearGradient1014)" stroke-linecap="round" class="Down"></path>
        <path d="M142 494L141 139" stroke-width="10" stroke="url(#SvgjsLinearGradient1013)" stroke-linecap="round" class="Up"></path>
        <path d="M551 276L550 613" stroke-width="8" stroke="url(#SvgjsLinearGradient1013)" stroke-linecap="round" class="Up"></path>
        <path d="M62 110L61 -258" stroke-width="8" stroke="url(#SvgjsLinearGradient1014)" stroke-linecap="round" class="Down"></path>
        <path d="M1341 306L1340 560" stroke-width="8" stroke="url(#SvgjsLinearGradient1014)" stroke-linecap="round" class="Down"></path>
        <path d="M301 354L300 200" stroke-width="8" stroke="url(#SvgjsLinearGradient1014)" stroke-linecap="round" class="Down"></path>
    </g>
    <defs>
        <mask id="SvgjsMask1012">
            <rect width="1440" height="560" fill="#ffffff"></rect>
        </mask>
        <linearGradient x1="0%" y1="100%" x2="0%" y2="0%" id="SvgjsLinearGradient1013">
            <stop stop-color="rgba(211, 211, 211, 0)" offset="0"></stop>
            <stop stop-color="rgba(211, 211, 211, 0.09)" offset="1"></stop>
        </linearGradient>
        <linearGradient x1="0%" y1="0%" x2="0%" y2="100%" id="SvgjsLinearGradient1014">
            <stop stop-color="rgba(211, 211, 211, 0)" offset="0"></stop>
            <stop stop-color="rgba(211, 211, 211, 0.09)" offset="1"></stop>
        </linearGradient>
    </defs>
</svg>